#!OML:ASF I:\Actors\actors\Patient Classification 1\Patient 1\Session 1\Subject1.ASF
:FULLY-SPECIFIED
:DEGREES
1124
root 0.541293 17.5249 8.6821 9.43811 -3.26076 -12.1266
lowerback 2.2528 2.77787 7.21223
upperback -6.84307 4.34891 1.89325
thorax -8.11645 1.74335 -2.40732
lowerneck -19.305 -3.59403 -0.746492
upperneck 26.9289 -6.83639 6.1696
head 12.3947 -2.29917 1.34735
rclavicle 1.92821e-014 -5.56597e-015
rhumerus 40.7297 56.6043 -44.8501
rradius 53.8673
rwrist 19.7081
rhand 15.7894 -43.3476
rfingers 7.12502
rthumb 40.5942 291.608
lclavicle 1.92821e-014 -5.56597e-015
lhumerus 31.0593 -55.4468 40.2215
lradius 56.7144
lwrist 15.6355
lhand -16.6246 -0.0028602
lfingers 7.12502
lthumb 9.59754 29.7585
rfemur -6.16113 26.5754 28.2653
rtibia 1.44025
rfoot -9.53341 -24.0004
rtoes 2.69748
lfemur 5.80496 -49.9244 -8.3049
ltibia -5.78691
lfoot -29.2477 58.4654
ltoes 16.7042
1125
root 0.561206 17.5354 8.66924 9.76859 -3.24991 -10.855
lowerback 1.99342 2.78584 6.09731
upperback -6.94343 4.2457 1.52691
thorax -8.1158 1.75089 -2.15884
lowerneck -19.3841 -3.57618 -0.834038
upperneck 26.6972 -6.79272 6.26905
head 12.3244 -2.28027 1.4038
rclavicle -1.7344e-014 -3.26007e-014
rhumerus 39.6169 56.5888 -46.7521
rradius 52.8967
rwrist 18.1753
rhand 15.8753 -44.5068
rfingers 7.12502
rthumb 40.6749 290.474
lclavicle -1.7344e-014 -3.26007e-014
lhumerus 30.281 -55.3948 42.0706
lradius 55.8081
lwrist 19.3858
lhand -18.1683 1.41125
lfingers 7.12502
lthumb 8.10791 31.2357
rfemur -6.73326 25.9945 26.4442
rtibia 1.3485
rfoot -9.49486 -23.6555
rtoes 2.57873
lfemur 4.96501 -50.5929 -9.48295
ltibia -5.21538
lfoot -30.0762 58.7593
ltoes 17.21
1126
root 0.57673 17.5388 8.65934 9.99609 -3.04562 -10.1179
lowerback 1.8442 2.73828 5.51561
upperback -7.01355 4.12297 1.31212
thorax -8.1302 1.71958 -2.04774
lowerneck -19.4928 -3.53167 -0.843087
upperneck 26.4861 -6.72775 6.33284
head 12.2633 -2.24712 1.43676
rclavicle -3.49364e-014 -1.43125e-014
rhumerus 38.5199 56.6655 -48.5144
rradius 52.364
rwrist 14.1274
rhand 16.217 -46.2975
rfingers 7.12502
rthumb 40.9959 288.785
lclavicle -3.49364e-014 -1.43125e-014
lhumerus 29.6054 -55.4313 43.6504
lradius 55.0813
lwrist 23.1021
lhand -20.0305 2.06715
lfingers 7.12502
lthumb 6.3104 31.9531
rfemur -7.06606 25.6461 25.3597
rtibia 1.22444
rfoot -9.63332 -23.6291
rtoes 2.81837
lfemur 4.23485 -51.0479 -9.99182
ltibia -4.80115
lfoot -30.3988 58.8062
ltoes 17.3854
1127
root 0.581185 17.5361 8.65354 10.0101 -2.82743 -10.1056
lowerback 1.88236 2.70496 5.5747
upperback -7.00747 4.08273 1.28411
thorax -8.14344 1.69448 -2.10868
lowerneck -19.4867 -3.49064 -0.803567
upperneck 26.1994 -6.68044 6.41158
head 12.1493 -2.21999 1.46488
rclavicle 5.02428e-014 1.59028e-015
rhumerus 37.5833 56.8552 -49.9561
rradius 52.2444
rwrist 7.98045
rhand 15.2621 -48.7664
rfingers 7.12502
rthumb 40.0983 286.037
lclavicle 5.02428e-014 1.59028e-015
lhumerus 28.8464 -55.3416 45.1932
lradius 54.425
lwrist 24.8432
lhand -21.4396 2.37105
lfingers 7.12502
lthumb 4.94991 32.2932
rfemur -7.04539 25.6876 25.3225
rtibia 1.12903
rfoot -9.74746 -23.8976
rtoes 3.11647
lfemur 4.03794 -51.1941 -9.87274
ltibia -4.71724
lfoot -30.4569 58.6604
ltoes 17.5529
1128
root 0.583889 17.5343 8.65061 10.0294 -2.74528 -10.1435
lowerback 1.86326 2.72631 5.6633
upperback -6.98732 4.11139 1.24071
thorax -8.09973 1.70294 -2.20369
lowerneck -19.4301 -3.48566 -0.796344
upperneck 25.8743 -6.68553 6.5412
head 12.0167 -2.21539 1.50896
rclavicle 3.43897e-014 -1.59028e-014
rhumerus 36.4414 56.9186 -51.5084
rradius 52.4597
rwrist 2.55406
rhand 13.2433 -50.8685
rfingers 7.12502
rthumb 38.1956 283.386
lclavicle 3.43897e-014 -1.59028e-014
lhumerus 28.0748 -55.1448 46.5841
lradius 53.9794
lwrist 25.2732
lhand -21.7049 2.89522
lfingers 7.12502
lthumb 4.69376 32.8232
rfemur -7.00663 25.8167 25.3624
rtibia 1.03907
rfoot -9.72735 -24.1454
rtoes 3.12615
lfemur 3.99054 -51.3602 -9.79367
ltibia -4.69854
lfoot -30.9028 58.5957
ltoes 18.0537
1129
root 0.585694 17.5337 8.64811 10.0542 -2.75489 -10.1888
lowerback 1.83301 2.77168 5.70819
upperback -6.95242 4.16919 1.2153
thorax -8.03483 1.7303 -2.25676
lowerneck -19.469 -3.4201 -0.679709
upperneck 25.6605 -6.61647 6.55942
head 11.9351 -2.17575 1.50482
rclavicle -1.95803e-014 7.95139e-015
rhumerus 35.0708 56.7095 -53.2747
rradius 52.751
rwrist 0.577961
rhand 12.3045 -51.7743
rfingers 7.12502
rthumb 37.3086 282.242
lclavicle -1.95803e-014 7.95139e-015
lhumerus 27.3768 -54.8381 47.7962
lradius 53.817
lwrist 26.6186
lhand -20.8948 3.59329
lfingers 7.12502
lthumb 5.47588 33.5025
rfemur -6.96149 26.0886 25.4167
rtibia 0.94897
rfoot -9.66119 -24.4506
rtoes 2.84094
lfemur 4.00996 -51.5696 -9.75794
ltibia -4.70301
lfoot -31.6397 58.6259
ltoes 18.657
1130
root 0.5927 17.531 8.64193 9.96179 -2.72332 -10.5433
lowerback 2.02854 2.79564 6.15574
upperback -6.89556 4.24676 1.28729
thorax -8.06146 1.74155 -2.44361
lowerneck -19.6091 -3.37227 -0.622062
upperneck 25.5498 -6.53767 6.48881
head 11.9112 -2.14386 1.47878
rclavicle 1.635e-014 -2.38542e-015
rhumerus 34.2327 56.5521 -54.417
rradius 53.0075
rwrist 1.45007
rhand 12.3117 -51.836
rfingers 7.12502
rthumb 37.3155 282.182
lclavicle 1.635e-014 -2.38542e-015
lhumerus 26.6528 -54.4514 48.9227
lradius 53.9993
lwrist 29.0678
lhand -19.9747 4.50805
lfingers 7.12502
lthumb 6.36421 34.3924
rfemur -6.79303 26.0281 25.9008
rtibia 0.907498
rfoot -9.53458 -24.431
rtoes 2.32728
lfemur 4.12993 -51.1924 -9.41306
ltibia -4.82441
lfoot -31.0467 58.4074
ltoes 18.3461
1131
root 0.604203 17.5243 8.63493 9.79626 -2.5948 -11.2015
lowerback 2.34798 2.78379 7.02249
upperback -6.8415 4.32147 1.4246
thorax -8.14563 1.72382 -2.79985
lowerneck -19.7297 -3.34029 -0.537835
upperneck 25.5522 -6.49683 6.40626
head 11.928 -2.12501 1.43903
rclavicle 8.00108e-015 -2.54444e-014
rhumerus 33.9495 56.557 -54.9064
rradius 53.3432
rwrist 2.89312
rhand 12.38 -51.6974
rfingers 7.12502
rthumb 37.38 282.337
lclavicle 8.00108e-015 -2.54444e-014
lhumerus 25.9216 -54.1309 49.7996
lradius 54.6252
lwrist 31.5777
lhand -19.8552 5.82518
lfingers 7.12502
lthumb 6.47965 35.7061
rfemur -6.52555 25.679 26.7935
rtibia 0.893941
rfoot -9.43727 -24.1963
rtoes 1.86715
lfemur 4.26701 -50.296 -8.68644
ltibia -5.05405
lfoot -29.2774 57.8931
ltoes 17.2562
1132
root 0.611973 17.5201 8.63284 9.73329 -2.55346 -11.5307
lowerback 2.47041 2.78212 7.45066
upperback -6.81049 4.36182 1.4846
thorax -8.1608 1.71754 -2.98191
lowerneck -19.6635 -3.28717 -0.484384
upperneck 25.3721 -6.41798 6.39485
head 11.8391 -2.09294 1.43773
rclavicle -4.77332e-014 -2.14687e-014
rhumerus 33.8729 56.6492 -55.1105
rradius 53.9687
rwrist 3.11144
rhand 12.1484 -51.9863
rfingers 7.12502
rthumb 37.1611 281.991
lclavicle -4.77332e-014 -2.14687e-014
lhumerus 25.3196 -53.9044 50.2819
lradius 55.594
lwrist 33.0158
lhand -20.6422 7.28166
lfingers 7.12502
lthumb 5.71985 37.1845
rfemur -6.41155 25.5097 27.2296
rtibia 0.891946
rfoot -9.38287 -24.0766
rtoes 1.48415
lfemur 4.35474 -49.9296 -8.34689
ltibia -5.16745
lfoot -28.6325 57.6722
ltoes 16.8924
1133
root 0.610841 17.5187 8.63619 9.75368 -2.59332 -11.5902
lowerback 2.41457 2.81626 7.41199
upperback -6.79022 4.40005 1.51006
thorax -8.10594 1.74269 -2.93279
lowerneck -19.6002 -3.24283 -0.477616
upperneck 25.2067 -6.35836 6.45334
head 11.7624 -2.0643 1.4672
rclavicle -1.94312e-014 1.59028e-015
rhumerus 34.0157 56.8546 -54.9199
rradius 55.0298
rwrist 1.48102
rhand 11.0989 -53.0391
rfingers 7.12502
rthumb 36.1678 280.686
lclavicle -1.94312e-014 1.59028e-015
lhumerus 24.9263 -53.7516 50.4105
lradius 56.7695
lwrist 33.0763
lhand -21.8633 8.32937
lfingers 7.12502
lthumb 4.5408 38.2607
rfemur -6.42971 25.706 27.2899
rtibia 0.91844
rfoot -9.40292 -24.2096
rtoes 1.4741
lfemur 4.39794 -50.0417 -8.28865
ltibia -5.20067
lfoot -28.8955 57.779
ltoes 17.0741
1134
root 0.612037 17.5182 8.639 9.82179 -2.59012 -11.5843
lowerback 2.34246 2.8633 7.36093
upperback -6.79387 4.45223 1.49805
thorax -8.06414 1.77316 -2.91703
lowerneck -19.6258 -3.2432 -0.47713
upperneck 25.1439 -6.35948 6.47294
head 11.7442 -2.06332 1.47335
rclavicle 1.04113e-014 0
rhumerus 34.4419 57.1427 -54.2642
rradius 56.4597
rwrist -0.877541
rhand 8.84541 -54.629
rfingers 7.12502
rthumb 34.0304 278.594
lclavicle 1.04113e-014 0
lhumerus 24.7244 -53.6191 50.2775
lradius 58.1598
lwrist 32.6477
lhand -23.2385 8.66083
lfingers 7.12502
lthumb 3.21277 38.6164
rfemur -6.51436 25.8719 27.2267
rtibia 0.928036
rfoot -9.46616 -24.3599
rtoes 1.8137
lfemur 4.30786 -50.2097 -8.21972
ltibia -5.20027
lfoot -29.111 57.9099
ltoes 17.1729
1135
root 0.621546 17.5222 8.64035 10.0264 -2.67083 -11.1624
lowerback 2.14739 2.92463 7.00264
upperback -6.82812 4.48375 1.33939
thorax -7.99141 1.80881 -2.87814
lowerneck -19.7076 -3.27724 -0.531073
upperneck 25.1378 -6.40469 6.51881
head 11.7639 -2.081 1.49116
rclavicle 2.08972e-014 3.18055e-014
rhumerus 35.215 57.5116 -53.1815
rradius 57.9999
rwrist -2.51624
rhand 4.62273 -56.0614
rfingers 7.12502
rthumb 30.0101 276.353
lclavicle 2.08972e-014 3.18055e-014
lhumerus 24.5844 -53.3515 49.9754
lradius 59.877
lwrist 32.7461
lhand -24.4805 8.89263
lfingers 7.12502
lthumb 2.01329 38.8629
rfemur -6.82962 25.7358 26.5529
rtibia 0.93007
rfoot -9.42693 -24.2176
rtoes 1.85321
lfemur 4.02389 -50.6896 -8.60223
ltibia -5.04059
lfoot -29.8618 58.2287
ltoes 17.638
1136
root 0.623664 17.5293 8.64613 10.2822 -2.86349 -10.4928
lowerback 1.81121 3.01265 6.24783
upperback -6.86663 4.51246 1.11656
thorax -7.8601 1.86863 -2.67876
lowerneck -19.7856 -3.3297 -0.600499
upperneck 25.1853 -6.49625 6.63355
head 11.8096 -2.11037 1.53026
rclavicle -1.9133e-014 -1.35174e-014
rhumerus 35.3883 57.1974 -52.9595
rradius 59.2724
rwrist -0.0937781
rhand 3.28788 -56.1496
rfingers 7.12502
rthumb 28.7356 276.041
lclavicle -1.9133e-014 -1.35174e-014
lhumerus 24.3717 -52.8874 49.6536
lradius 61.9277
lwrist 33.6881
lhand -24.9054 9.4506
lfingers 7.12502
lthumb 1.60293 39.4243
rfemur -7.25409 25.7278 25.5538
rtibia 0.976837
rfoot -9.40357 -24.1295
rtoes 1.76555
lfemur 3.71024 -51.3343 -9.24223
ltibia -4.83986
lfoot -31.0711 58.6791
ltoes 18.3389
1137
root 0.621934 17.532 8.65374 10.3896 -2.95723 -10.1814
lowerback 1.64073 3.08578 5.84914
upperback -6.8929 4.56497 0.971191
thorax -7.79695 1.91712 -2.60519
lowerneck -19.7258 -3.33495 -0.449996
upperneck 25.1677 -6.55059 6.63334
head 11.7889 -2.12187 1.49664
rclavicle 2.48978e-014 7.95139e-016
rhumerus 35.4738 56.7871 -52.8847
rradius 60.4853
rwrist 2.88549
rhand 1.50339 -56.0394
rfingers 7.12502
rthumb 27.0296 275.875
lclavicle 2.48978e-014 7.95139e-016
lhumerus 24.1722 -52.2813 49.3832
lradius 64.0823
lwrist 35.0522
lhand -24.5757 10.1402
lfingers 7.12502
lthumb 1.92134 40.1113
rfemur -7.434 25.7342 25.0956
rtibia 1.00331
rfoot -9.44391 -24.0862
rtoes 1.6906
lfemur 3.66977 -51.8187 -9.61534
ltibia -4.74905
lfoot -32.0008 59.0066
ltoes 18.8142
1138
root 0.623953 17.5314 8.65927 10.383 -2.96306 -10.1736
lowerback 1.6634 3.12725 5.84625
upperback -6.92278 4.61958 0.907075
thorax -7.83301 1.94016 -2.6771
lowerneck -19.6152 -3.34232 -0.372758
upperneck 25.1636 -6.59093 6.65755
head 11.766 -2.13195 1.48746
rclavicle -2.76311e-014 7.95139e-015
rhumerus 35.6794 56.3464 -52.6696
rradius 61.8007
rwrist 5.14665
rhand -0.574586 -55.8064
rfingers 7.12502
rthumb 25.0399 275.815
lclavicle -2.76311e-014 7.95139e-015
lhumerus 23.976 -51.5355 49.1993
lradius 66.0273
lwrist 35.8907
lhand -24.303 10.65
lfingers 7.12502
lthumb 2.18468 40.6186
rfemur -7.41176 25.6921 25.0785
rtibia 0.993335
rfoot -9.50957 -23.993
rtoes 1.69628
lfemur 3.83359 -52.1296 -9.78152
ltibia -4.73585
lfoot -32.5146 59.2252
ltoes 18.9515
